<?xml version="1.0" encoding="UTF-8" standalone="no"?>
<svg width="87px" height="87px" viewBox="0 0 87 87" version="1.1" xmlns="http://www.w3.org/2000/svg" xmlns:xlink="http://www.w3.org/1999/xlink">
    <!-- Generator: Sketch 41.1 (35376) - http://www.bohemiancoding.com/sketch -->
    <title>Appointment icon</title>
    <desc>Created with Sketch.</desc>
    <defs>
        <polygon id="path-1" points="43.3760701 69.9405412 22.2410519 69.9405412 22.2410519 15.1711068 43.3760701 15.1711068 64.5110884 15.1711068 64.5110884 69.9405412 43.3760701 69.9405412"></polygon>
        <polygon id="path-3" points="22.2410519 70.1519269 64.5111311 70.1519269 64.5111311 15.3824925 22.2410519 15.3824925"></polygon>
    </defs>
    <g id="Page-1" stroke="none" stroke-width="1" fill="none" fill-rule="evenodd">
        <g id="DIETRICH-HOME" transform="translate(-643.000000, -871.000000)">
            <g id="CTA-BELOW-SLIDER" transform="translate(-11.000000, 824.000000)">
                <g id="Appointment-icon" transform="translate(654.538349, 47.528090)">
                    <g id="Group-3" transform="translate(0.000000, 0.211386)">
                        <ellipse id="Oval" fill="#FA7801" cx="42.9656684" cy="42.9775281" rx="42.9656684" ry="42.9775281"></ellipse>
                        <mask id="mask-2" fill="white">
                            <use xlink:href="#path-1"></use>
                        </mask>
                        <g id="Clip-2"></g>
                        <path d="M44.7342415,17.8748325 C44.3866653,17.5263028 43.9065878,17.310852 43.3761555,17.310852 C42.8457232,17.310852 42.3654323,17.5263028 42.0182829,17.8748325 C41.6709201,18.2229342 41.4558454,18.7045427 41.4558454,19.2362163 C41.4558454,19.7683177 41.6709201,20.2499262 42.0182829,20.5982419 C42.3438821,20.9245204 42.7861935,21.1344085 43.2773662,21.159441 L43.4749448,21.159441 C43.9661174,21.1344085 44.4086422,20.9245204 44.7342415,20.5982419 C45.0813908,20.2499262 45.2964656,19.7683177 45.2964656,19.2362163 C45.2964656,18.7045427 45.0813908,18.2229342 44.7342415,17.8748325 L44.7342415,17.8748325 Z M43.3761555,15.1711068 C44.6134753,15.1711068 45.7336562,15.2464183 46.5444538,16.0596541 C47.3552514,16.872676 47.856879,17.99593 47.856879,19.2362163 L47.856879,19.2364302 L52.977706,19.2364302 L52.977706,25.6548103 L33.774605,25.6548103 L33.774605,19.2364302 L38.8954319,19.2364302 L38.8954319,19.2362163 C38.8954319,17.99593 39.3970596,16.872676 40.2080706,16.0596541 C41.0188682,15.2464183 42.139049,15.1711068 43.3761555,15.1711068 L43.3761555,15.1711068 Z M34.8414439,33.1440257 L51.7945816,33.1440257 L49.8842998,34.8556508 L36.5483862,34.8556508 L36.5483862,48.5486512 L50.2039247,48.5486512 L50.2039247,42.5701589 L51.910867,41.0406079 L51.910867,50.2602763 L34.8414439,50.2602763 L34.8414439,33.1440257 Z M26.508365,21.159441 L32.0676627,21.159441 L32.0676627,23.7270925 L26.508365,23.7270925 C26.040236,23.7270925 25.6137138,23.9198643 25.3036904,24.2307382 C24.9938804,24.5413982 24.8014227,24.9690905 24.8014227,25.4385036 L24.8014227,65.6614786 C24.8014227,66.5994491 25.5723205,67.3728897 26.508365,67.3728897 L60.243946,67.3728897 C61.1793504,67.3728897 61.9506749,66.5992352 61.9506749,65.6614786 L61.9506749,25.4385036 C61.9506749,24.9690905 61.7582172,24.5416121 61.4481938,24.2307382 C61.1385971,23.9198643 60.7118616,23.7270925 60.243946,23.7270925 L54.6846483,23.7270925 L54.6846483,21.159441 L60.243946,21.159441 C61.4185357,21.159441 62.4858014,21.6408355 63.2584061,22.4155598 C64.0314376,23.190712 64.5110884,24.2609056 64.5110884,25.4385036 L64.5110884,65.6614786 C64.5110884,68.0160328 62.5924853,69.9405412 60.243946,69.9405412 L26.508365,69.9405412 C24.1591856,69.9405412 22.2410092,68.0166747 22.2410092,65.6614786 L22.2410092,25.4385036 C22.2410092,24.2604777 22.72066,23.1904981 23.4934781,22.4155598 C24.2662962,21.6406216 25.3335619,21.159441 26.508365,21.159441 L26.508365,21.159441 Z" id="Fill-1" fill="#FFFFFF" mask="url(#mask-2)"></path>
                    </g>
                    <mask id="mask-4" fill="white">
                        <use xlink:href="#path-3"></use>
                    </mask>
                    <g id="Clip-5"></g>
                    <path d="M31.0012932,55.8153554 L55.7515299,55.8153554 L55.7515299,54.1037304 L31.0012932,54.1037304 L31.0012932,55.8153554 Z M31.0012932,60.309227 L55.7515299,60.309227 L55.7515299,58.597602 L31.0012932,58.597602 L31.0012932,60.309227 Z M38.5269884,40.4145811 C38.0631269,39.8826936 38.1168955,39.0745926 38.6471145,38.6094585 C39.1773334,38.1441104 39.983437,38.1978127 40.4472985,38.7297001 L43.9192192,42.6978889 L53.6268135,34.0000522 C54.1516982,33.5293553 54.9575884,33.5740715 55.4269975,34.1003962 C55.8964066,34.6267209 55.8518128,35.4348219 55.326928,35.9055188 L44.6926774,45.4337076 C44.1479494,45.9388509 43.3298973,45.9048324 42.8483262,45.3536891 L38.5269884,40.4145811 Z" id="Fill-4" fill="#FFFFFF" mask="url(#mask-4)"></path>
                </g>
            </g>
        </g>
    </g>
</svg>