<?xml version="1.0" encoding="utf-8"?>
<!-- Generator: Adobe Illustrator 21.0.0, SVG Export Plug-In . SVG Version: 6.00 Build 0)  -->
<svg version="1.1" id="Layer_1" xmlns="http://www.w3.org/2000/svg" xmlns:xlink="http://www.w3.org/1999/xlink" x="0px" y="0px"
	 viewBox="0 0 480 200" style="enable-background:new 0 0 480 200;" xml:space="preserve">
<style type="text/css">
	.st0{fill:#A9501E;}
	.st1{fill:#003663;}
</style>
<g>
	<path class="st0" d="M140,90c2.8-0.3,5.7-0.6,8.5-0.9c11.2-25.8,33.1-46.9,59.9-55.9c3.2-1.1,5.5-1.7,8.8-2.3
		c3.6-0.7,7.2-1.1,10.8-1.4c7.7-0.6,15.4-0.2,23,0.9c14.5,2.2,28.4,7.6,40.7,15.7c16.2,10.7,29.1,26,37.1,43.6
		c2.4,0.3,4.7,0.5,7,0.8c0.6-0.2,1-0.5,1.1-0.6c5.5-9.3,13.1-17.2,21.8-23.5c0.4-0.3-0.5-0.2-0.4-0.2c-0.7,0.1-1.5,0.3-2.2,0.4
		c-1.3,0.3-3.2,0.6-4.4,1.4c-6.5,4.7-12.4,10.3-17.2,16.6C322.7,60.7,301.9,42,276.7,33c-14.2-5.1-29.4-6.8-44.3-5.4
		c-15.5,1.4-31.1,6-44.8,13.3c-18.3,9.7-33.3,25-42.9,43.3c-5-7.1-11.3-13.3-18.3-18.5c-0.2-0.2-0.9,0-1.1,0.1
		c-0.9,0.2-1.7,0.4-2.6,0.6c-0.8,0.2-1.7,0.5-2.5,0.8c0.1,0-1.1,0.4-1,0.5C127.4,73.7,134.6,81.2,140,90z"/>
	<g>
		<path class="st0" d="M24.6,127c0,1.4,0.3,1.9,0.6,2c0.3,0.1,0.7,0.1,0.9,0.1c0.2,0,0.3,0,0.3,0.1c0,0.1-0.2,0.2-0.4,0.2
			c-1.2,0-1.9,0-2.3,0c-0.2,0-1,0-2,0c-0.2,0-0.4,0-0.4-0.2c0-0.1,0.1-0.1,0.3-0.1c0.2,0,0.6,0,0.8-0.1c0.5-0.1,0.6-0.7,0.6-2.3
			l0.2-10.8c0-0.4,0.1-0.6,0.2-0.6c0.2,0,0.4,0.2,0.7,0.6c0.2,0.2,3,3.2,5.7,5.9c1.2,1.2,3.7,3.9,4,4.2h0.1l-0.2-8.2
			c0-1.1-0.2-1.5-0.6-1.6c-0.3-0.1-0.7-0.1-1-0.1c-0.2,0-0.3-0.1-0.3-0.2c0-0.1,0.2-0.2,0.5-0.2c0.9,0,1.8,0.1,2.2,0.1
			c0.2,0,0.9-0.1,1.8-0.1c0.2,0,0.4,0,0.4,0.2c0,0.1-0.1,0.2-0.3,0.2c-0.2,0-0.3,0-0.6,0.1c-0.5,0.1-0.7,0.5-0.7,1.5L35,129.2
			c0,0.4-0.1,0.6-0.2,0.6c-0.2,0-0.4-0.2-0.6-0.4c-1.2-1.1-3.5-3.5-5.4-5.4c-2-2-4-4.3-4.3-4.6h0L24.6,127z"/>
		<path class="st0" d="M49.6,122.6c0-3.1,2.1-7.2,7.5-7.2c4.5,0,7.4,2.6,7.4,6.8c0,4.2-2.9,7.5-7.5,7.5
			C51.7,129.8,49.6,125.9,49.6,122.6z M61.9,123c0-4.1-2.4-6.6-5.3-6.6c-2.1,0-4.5,1.2-4.5,5.7c0,3.8,2.1,6.8,5.6,6.8
			C59,128.9,61.9,128.3,61.9,123z"/>
		<path class="st0" d="M79.2,121c0-2.8,0-3.3,0-3.9c0-0.6-0.2-0.9-0.8-1c-0.1,0-0.5-0.1-0.7-0.1c-0.2,0-0.3,0-0.3-0.2
			c0-0.1,0.1-0.2,0.4-0.2c1,0,2.1,0.1,2.5,0.1c0.6,0,2-0.1,2.6-0.1c1.1,0,2.4,0.1,3.4,0.8c0.5,0.3,1.2,1.3,1.2,2.5
			c0,1.4-0.6,2.6-2.4,4.1c1.6,2,2.9,3.7,4,4.8c1,1.1,1.8,1.2,2,1.2c0.2,0,0.4,0.1,0.5,0.1c0.1,0,0.2,0.1,0.2,0.1
			c0,0.1-0.1,0.2-0.3,0.2h-1.7c-1,0-1.5-0.1-2-0.3c-0.8-0.4-1.5-1.3-2.5-2.7c-0.7-1-1.6-2.2-1.8-2.5c-0.1-0.1-0.2-0.1-0.3-0.1
			l-1.6,0c-0.1,0-0.1,0-0.1,0.1v0.3c0,1.7,0,3.1,0.1,3.9c0.1,0.5,0.2,0.9,0.7,1c0.3,0,0.7,0.1,0.9,0.1c0.2,0,0.2,0.1,0.2,0.1
			c0,0.1-0.1,0.2-0.4,0.2c-1.1,0-2.4,0-2.7,0c-0.3,0-1.5,0-2.2,0c-0.2,0-0.4,0-0.4-0.2c0-0.1,0.1-0.1,0.3-0.1c0.3,0,0.5,0,0.7-0.1
			c0.4-0.1,0.5-0.5,0.5-1c0.1-0.8,0.1-2.2,0.1-3.9V121z M81.4,122.5c0,0.2,0,0.3,0.2,0.3c0.4,0.1,0.9,0.2,1.4,0.2
			c0.7,0,1-0.1,1.3-0.3c0.5-0.4,1.1-1.2,1.1-2.7c0-2.6-1.7-3.3-2.8-3.3c-0.5,0-0.8,0-1,0.1c-0.1,0-0.2,0.1-0.2,0.3V122.5z"/>
		<path class="st0" d="M105.7,116.7l-2.7,0.1c-1.1,0-1.5,0.1-1.8,0.5c-0.2,0.3-0.3,0.5-0.3,0.6c0,0.1-0.1,0.2-0.2,0.2
			c-0.1,0-0.2-0.1-0.2-0.3c0-0.3,0.3-2,0.4-2.1c0.1-0.2,0.1-0.3,0.2-0.3c0.1,0,0.3,0.2,0.8,0.2c0.5,0.1,1.2,0.1,1.8,0.1h7.2
			c0.6,0,1-0.1,1.3-0.1c0.3-0.1,0.4-0.1,0.5-0.1c0.1,0,0.1,0.1,0.1,0.4c0,0.4-0.1,1.6-0.1,2.1c0,0.2-0.1,0.3-0.2,0.3
			c-0.1,0-0.2-0.1-0.2-0.4l0-0.2c0-0.5-0.5-1-2.2-1l-2.3-0.1v7.5c0,1.7,0,3.1,0.1,3.9c0.1,0.5,0.2,0.9,0.7,1c0.3,0,0.7,0.1,0.9,0.1
			c0.2,0,0.3,0.1,0.3,0.1c0,0.1-0.1,0.2-0.4,0.2c-1.2,0-2.4,0-2.9,0c-0.4,0-1.6,0-2.3,0c-0.2,0-0.4,0-0.4-0.2c0-0.1,0.1-0.1,0.3-0.1
			c0.3,0,0.5,0,0.7-0.1c0.4-0.1,0.5-0.5,0.5-1c0.1-0.8,0.1-2.2,0.1-3.9V116.7z"/>
		<path class="st0" d="M136.5,121.5c0.1,0,0.1,0,0.1-0.1V121c0-2.8,0-3.3,0-3.9c0-0.6-0.2-0.9-0.8-1c-0.1,0-0.5-0.1-0.7-0.1
			c-0.2,0-0.3,0-0.3-0.2c0-0.1,0.1-0.2,0.4-0.2c1,0,2.1,0.1,2.6,0.1c0.4,0,1.6-0.1,2.3-0.1c0.3,0,0.4,0,0.4,0.2
			c0,0.1-0.1,0.2-0.3,0.2c-0.1,0-0.3,0-0.5,0.1c-0.5,0.1-0.6,0.4-0.7,1c0,0.6,0,1.1,0,3.9v3.2c0,1.7,0,3.1,0.1,3.9
			c0.1,0.5,0.2,0.9,0.7,1c0.3,0,0.7,0.1,0.9,0.1c0.2,0,0.3,0.1,0.3,0.1c0,0.1-0.1,0.2-0.4,0.2c-1.2,0-2.3,0-2.8,0
			c-0.4,0-1.6,0-2.3,0c-0.3,0-0.4,0-0.4-0.2c0-0.1,0.1-0.1,0.3-0.1c0.3,0,0.5,0,0.7-0.1c0.4-0.1,0.5-0.5,0.5-1
			c0.1-0.8,0.1-2.2,0.1-3.9v-1.6c0-0.1-0.1-0.1-0.1-0.1h-7c0,0-0.1,0-0.1,0.1v1.6c0,1.7,0,3.1,0.1,3.9c0.1,0.5,0.2,0.9,0.7,1
			c0.3,0,0.7,0.1,0.9,0.1c0.2,0,0.3,0.1,0.3,0.1c0,0.1-0.1,0.2-0.4,0.2c-1.2,0-2.3,0-2.8,0c-0.4,0-1.6,0-2.3,0c-0.2,0-0.4,0-0.4-0.2
			c0-0.1,0.1-0.1,0.3-0.1c0.3,0,0.5,0,0.7-0.1c0.4-0.1,0.5-0.5,0.5-1c0.1-0.8,0.1-2.2,0.1-3.9V121c0-2.8,0-3.3,0-3.9
			c0-0.6-0.2-0.9-0.8-1c-0.1,0-0.5-0.1-0.7-0.1c-0.2,0-0.3,0-0.3-0.2c0-0.1,0.1-0.2,0.4-0.2c1,0,2.1,0.1,2.6,0.1
			c0.4,0,1.6-0.1,2.3-0.1c0.3,0,0.4,0,0.4,0.2c0,0.1-0.1,0.2-0.3,0.2c-0.1,0-0.3,0-0.5,0.1c-0.5,0.1-0.6,0.4-0.7,1
			c0,0.6,0,1.1,0,3.9v0.4c0,0.1,0.1,0.1,0.1,0.1H136.5z"/>
		<path class="st0" d="M154.2,117.5c-0.2-0.7-0.4-1.1-0.7-1.3c-0.2-0.1-0.6-0.2-0.7-0.2c-0.2,0-0.3,0-0.3-0.2c0-0.1,0.2-0.2,0.4-0.2
			c0.9,0,1.9,0.1,2.1,0.1c0.2,0,1-0.1,2-0.1c0.3,0,0.4,0.1,0.4,0.2c0,0.1-0.1,0.2-0.3,0.2c-0.1,0-0.3,0-0.5,0.1
			c-0.2,0.1-0.2,0.2-0.2,0.4c0,0.2,0.2,0.9,0.4,1.7c0.3,1.2,2,6.7,2.3,7.8h0.1l3.5-9.5c0.2-0.5,0.3-0.7,0.5-0.7
			c0.2,0,0.3,0.3,0.5,0.9l3.8,9.2h0.1c0.3-1.2,1.8-6,2.4-8.2c0.1-0.4,0.2-0.8,0.2-1.1c0-0.3-0.2-0.6-0.9-0.6c-0.2,0-0.3-0.1-0.3-0.2
			c0-0.1,0.1-0.2,0.4-0.2c1,0,1.7,0.1,1.9,0.1c0.1,0,0.9-0.1,1.5-0.1c0.2,0,0.3,0,0.3,0.1c0,0.1-0.1,0.2-0.3,0.2
			c-0.2,0-0.4,0-0.6,0.1c-0.4,0.2-0.6,0.9-1,1.9c-0.8,2.3-2.8,8.1-3.6,10.9c-0.2,0.6-0.3,0.9-0.5,0.9c-0.2,0-0.3-0.2-0.6-0.9
			l-3.8-9.1h0c-0.3,0.9-2.8,7.4-3.6,9.1c-0.3,0.7-0.4,1-0.7,1c-0.2,0-0.3-0.2-0.4-0.7L154.2,117.5z"/>
		<path class="st0" d="M186.5,121c0-2.8,0-3.3,0-3.9c0-0.6-0.2-0.9-0.8-1c-0.1,0-0.5-0.1-0.7-0.1c-0.2,0-0.3,0-0.3-0.2
			c0-0.1,0.1-0.2,0.4-0.2c0.5,0,1,0,1.5,0c0.5,0,0.9,0,1.2,0c0.6,0,4.2,0,4.6,0c0.3,0,0.6-0.1,0.8-0.1c0.1,0,0.2-0.1,0.3-0.1
			c0.1,0,0.1,0.1,0.1,0.2c0,0.1-0.1,0.4-0.1,1.2c0,0.2-0.1,1-0.1,1.2c0,0.1-0.1,0.2-0.2,0.2c-0.1,0-0.2-0.1-0.2-0.3
			c0-0.1,0-0.4-0.1-0.7c-0.1-0.3-0.3-0.5-1.2-0.7c-0.3,0-2.2-0.1-2.6-0.1c-0.1,0-0.1,0.1-0.1,0.2v4.6c0,0.1,0,0.2,0.1,0.2
			c0.4,0,2.5,0,2.9,0c0.4,0,0.7-0.1,0.9-0.3c0.1-0.1,0.2-0.2,0.3-0.2c0.1,0,0.1,0,0.1,0.1c0,0.1-0.1,0.4-0.1,1.3
			c0,0.4-0.1,1.1-0.1,1.2c0,0.1,0,0.3-0.2,0.3c-0.1,0-0.2-0.1-0.2-0.2c0-0.2,0-0.4-0.1-0.7c-0.1-0.4-0.3-0.6-1-0.7
			c-0.3,0-2.1-0.1-2.6-0.1c-0.1,0-0.1,0.1-0.1,0.2v1.4c0,0.6,0,2.3,0,2.8c0,1.3,0.3,1.5,2.2,1.5c0.5,0,1.2,0,1.7-0.2
			c0.5-0.2,0.7-0.6,0.8-1.4c0-0.2,0.1-0.3,0.2-0.3c0.1,0,0.1,0.1,0.1,0.3c0,0.4-0.1,1.7-0.2,2c-0.1,0.5-0.3,0.5-1,0.5
			c-1.4,0-2.4,0-3.2-0.1c-0.8,0-1.4,0-1.9,0c-0.2,0-0.6,0-1,0c-0.4,0-0.9,0-1.3,0c-0.2,0-0.4,0-0.4-0.2c0-0.1,0.1-0.1,0.3-0.1
			c0.3,0,0.5,0,0.7-0.1c0.4-0.1,0.5-0.5,0.5-1c0.1-0.8,0.1-2.2,0.1-3.9V121z"/>
		<path class="st0" d="M208,129.3c-0.3-0.1-0.3-0.2-0.3-0.6c0-1,0.1-2.1,0.1-2.4c0-0.3,0.1-0.5,0.2-0.5c0.2,0,0.2,0.2,0.2,0.3
			c0,0.2,0.1,0.6,0.2,0.9c0.4,1.4,1.5,1.8,2.6,1.8c1.6,0,2.4-1.1,2.4-2.1c0-0.9-0.3-1.7-1.8-2.9l-0.8-0.7c-2-1.6-2.7-2.8-2.7-4.3
			c0-2,1.7-3.4,4.2-3.4c1.2,0,2,0.2,2.4,0.3c0.2,0,0.3,0.1,0.3,0.2c0,0.2-0.1,0.8-0.1,2.2c0,0.4-0.1,0.6-0.2,0.6
			c-0.1,0-0.2-0.1-0.2-0.3c0-0.2-0.1-0.7-0.5-1.2c-0.3-0.3-0.8-0.9-2-0.9c-1.4,0-2.2,0.8-2.2,1.9c0,0.8,0.4,1.5,1.9,2.6l0.5,0.4
			c2.2,1.7,3,2.9,3,4.7c0,1.1-0.4,2.3-1.7,3.2c-0.9,0.6-1.9,0.7-2.9,0.7C209.6,129.8,208.7,129.7,208,129.3z"/>
		<path class="st0" d="M232.9,116.7l-2.7,0.1c-1.1,0-1.5,0.1-1.8,0.5c-0.2,0.3-0.3,0.5-0.3,0.6c0,0.1-0.1,0.2-0.2,0.2
			c-0.1,0-0.2-0.1-0.2-0.3c0-0.3,0.3-2,0.4-2.1c0.1-0.2,0.1-0.3,0.2-0.3c0.1,0,0.3,0.2,0.8,0.2c0.5,0.1,1.2,0.1,1.8,0.1h7.2
			c0.6,0,1-0.1,1.3-0.1c0.3-0.1,0.4-0.1,0.5-0.1c0.1,0,0.1,0.1,0.1,0.4c0,0.4-0.1,1.6-0.1,2.1c0,0.2-0.1,0.3-0.2,0.3
			c-0.1,0-0.2-0.1-0.2-0.4l0-0.2c0-0.5-0.5-1-2.2-1l-2.3-0.1v7.5c0,1.7,0,3.1,0.1,3.9c0.1,0.5,0.2,0.9,0.7,1c0.3,0,0.7,0.1,0.9,0.1
			c0.2,0,0.3,0.1,0.3,0.1c0,0.1-0.1,0.2-0.3,0.2c-1.2,0-2.3,0-2.9,0c-0.4,0-1.6,0-2.3,0c-0.2,0-0.4,0-0.4-0.2c0-0.1,0.1-0.1,0.3-0.1
			c0.3,0,0.5,0,0.7-0.1c0.4-0.1,0.5-0.5,0.5-1c0.1-0.8,0.1-2.2,0.1-3.9V116.7z"/>
		<path class="st0" d="M270.8,121c0-2.8,0-3.3,0-3.9c0-0.6-0.2-0.9-0.8-1c-0.1,0-0.5-0.1-0.7-0.1c-0.2,0-0.3,0-0.3-0.2
			c0-0.1,0.1-0.2,0.4-0.2c1,0,2.1,0.1,2.6,0.1c0.7,0,1.8-0.1,2.6-0.1c2.3,0,3.1,0.8,3.4,1c0.4,0.4,0.9,1.2,0.9,2.2
			c0,2.6-1.9,4.4-4.5,4.4c-0.1,0-0.3,0-0.4,0c-0.1,0-0.2,0-0.2-0.2c0-0.1,0.1-0.2,0.5-0.2c1,0,2.4-1.1,2.4-3c0-0.6-0.1-1.8-1.1-2.7
			c-0.7-0.6-1.4-0.7-1.8-0.7c-0.3,0-0.5,0-0.7,0.1c-0.1,0-0.2,0.1-0.2,0.3v7.3c0,1.7,0,3.1,0.1,3.9c0.1,0.5,0.2,0.9,0.7,1
			c0.2,0,0.7,0.1,0.9,0.1c0.2,0,0.3,0.1,0.3,0.1c0,0.1-0.1,0.2-0.4,0.2c-1.2,0-2.3,0-2.8,0c-0.4,0-1.6,0-2.3,0c-0.2,0-0.4,0-0.4-0.2
			c0-0.1,0.1-0.1,0.3-0.1c0.3,0,0.5,0,0.7-0.1c0.4-0.1,0.4-0.5,0.5-1c0.1-0.8,0.1-2.2,0.1-3.9V121z"/>
		<path class="st0" d="M291.7,122.6c0-3.1,2.1-7.2,7.5-7.2c4.5,0,7.4,2.6,7.4,6.8c0,4.2-2.9,7.5-7.6,7.5
			C293.8,129.8,291.7,125.9,291.7,122.6z M304,123c0-4.1-2.4-6.6-5.3-6.6c-2.1,0-4.5,1.2-4.5,5.7c0,3.8,2.1,6.8,5.6,6.8
			C301.1,128.9,304,128.3,304,123z"/>
		<path class="st0" d="M321.3,121c0-2.8,0-3.3,0-3.9c0-0.6-0.2-0.9-0.8-1c-0.1,0-0.5-0.1-0.7-0.1c-0.2,0-0.3,0-0.3-0.2
			c0-0.1,0.1-0.2,0.4-0.2c1,0,2.1,0.1,2.5,0.1c0.6,0,2-0.1,2.6-0.1c1.1,0,2.4,0.1,3.4,0.8c0.5,0.3,1.2,1.3,1.2,2.5
			c0,1.4-0.6,2.6-2.4,4.1c1.6,2,2.9,3.7,4,4.8c1,1.1,1.8,1.2,2,1.2c0.2,0,0.4,0.1,0.5,0.1c0.1,0,0.2,0.1,0.2,0.1
			c0,0.1-0.1,0.2-0.3,0.2h-1.7c-1,0-1.5-0.1-2-0.3c-0.8-0.4-1.5-1.3-2.5-2.7c-0.7-1-1.6-2.2-1.8-2.5c-0.1-0.1-0.2-0.1-0.3-0.1
			l-1.6,0c-0.1,0-0.1,0-0.1,0.1v0.3c0,1.7,0,3.1,0.1,3.9c0,0.5,0.2,0.9,0.7,1c0.3,0,0.7,0.1,0.9,0.1c0.1,0,0.2,0.1,0.2,0.1
			c0,0.1-0.1,0.2-0.4,0.2c-1.1,0-2.4,0-2.7,0c-0.4,0-1.5,0-2.2,0c-0.2,0-0.4,0-0.4-0.2c0-0.1,0.1-0.1,0.3-0.1c0.3,0,0.5,0,0.7-0.1
			c0.4-0.1,0.5-0.5,0.5-1c0.1-0.8,0.1-2.2,0.1-3.9V121z M323.5,122.5c0,0.2,0,0.3,0.2,0.3c0.4,0.1,0.9,0.2,1.4,0.2
			c0.7,0,1-0.1,1.3-0.3c0.6-0.4,1.1-1.2,1.1-2.7c0-2.6-1.7-3.3-2.8-3.3c-0.4,0-0.8,0-1,0.1c-0.1,0-0.2,0.1-0.2,0.3V122.5z"/>
		<path class="st0" d="M347.8,116.7l-2.7,0.1c-1.1,0-1.5,0.1-1.8,0.5c-0.2,0.3-0.3,0.5-0.3,0.6c0,0.1-0.1,0.2-0.2,0.2
			c-0.1,0-0.2-0.1-0.2-0.3c0-0.3,0.3-2,0.4-2.1c0.1-0.2,0.1-0.3,0.2-0.3c0.1,0,0.3,0.2,0.8,0.2c0.5,0.1,1.2,0.1,1.8,0.1h7.2
			c0.6,0,1-0.1,1.3-0.1c0.3-0.1,0.4-0.1,0.5-0.1c0.1,0,0.1,0.1,0.1,0.4c0,0.4-0.1,1.6-0.1,2.1c0,0.2-0.1,0.3-0.2,0.3
			c-0.1,0-0.2-0.1-0.2-0.4l0-0.2c0-0.5-0.5-1-2.1-1l-2.3-0.1v7.5c0,1.7,0,3.1,0.1,3.9c0.1,0.5,0.2,0.9,0.7,1c0.3,0,0.7,0.1,0.9,0.1
			c0.2,0,0.3,0.1,0.3,0.1c0,0.1-0.1,0.2-0.3,0.2c-1.2,0-2.4,0-2.9,0c-0.4,0-1.6,0-2.3,0c-0.2,0-0.4,0-0.4-0.2c0-0.1,0.1-0.1,0.3-0.1
			c0.3,0,0.5,0,0.7-0.1c0.4-0.1,0.5-0.5,0.5-1c0.1-0.8,0.1-2.2,0.1-3.9V116.7z"/>
		<path class="st0" d="M371.5,124.2c0,2.3,0,3.6,0.4,3.9c0.3,0.3,0.8,0.4,2.2,0.4c1,0,1.7,0,2.1-0.5c0.2-0.2,0.4-0.7,0.5-1.1
			c0-0.2,0.1-0.3,0.2-0.3c0.1,0,0.2,0.1,0.2,0.3c0,0.2-0.1,1.6-0.3,2.1c-0.1,0.4-0.2,0.5-1.1,0.5c-1.3,0-2.3,0-3.1-0.1
			c-0.8,0-1.5,0-2.2,0c-0.2,0-0.6,0-1,0c-0.4,0-0.9,0-1.3,0c-0.2,0-0.4,0-0.4-0.2c0-0.1,0.1-0.1,0.3-0.1c0.3,0,0.5,0,0.7-0.1
			c0.4-0.1,0.5-0.5,0.5-1c0.1-0.8,0.1-2.2,0.1-3.9V121c0-2.8,0-3.3,0-3.9c0-0.6-0.2-0.9-0.8-1c-0.1,0-0.4-0.1-0.6-0.1
			c-0.2,0-0.3,0-0.3-0.2c0-0.1,0.1-0.2,0.4-0.2c0.9,0,2,0.1,2.5,0.1c0.4,0,1.8-0.1,2.5-0.1c0.3,0,0.4,0,0.4,0.2
			c0,0.1-0.1,0.2-0.3,0.2c-0.2,0-0.5,0-0.7,0.1c-0.5,0.1-0.6,0.4-0.7,1c0,0.6,0,1.1,0,3.9V124.2z"/>
		<path class="st0" d="M392.3,124.8c-0.1,0-0.1,0-0.2,0.1l-1,2.6c-0.2,0.5-0.3,0.9-0.3,1.1c0,0.3,0.2,0.6,0.7,0.6h0.3
			c0.2,0,0.3,0,0.3,0.1c0,0.1-0.1,0.2-0.3,0.2c-0.6,0-1.4,0-1.9,0c-0.2,0-1.2,0-2.1,0c-0.2,0-0.3,0-0.3-0.2c0-0.1,0.1-0.1,0.2-0.1
			c0.2,0,0.4,0,0.6,0c0.8-0.1,1.2-0.7,1.5-1.6l4.6-11.5c0.2-0.5,0.3-0.7,0.5-0.7c0.2,0,0.3,0.2,0.5,0.6c0.4,1,3.4,8.5,4.5,11.2
			c0.7,1.6,1.2,1.9,1.6,2c0.3,0.1,0.6,0.1,0.8,0.1c0.2,0,0.2,0,0.2,0.1c0,0.1-0.2,0.2-0.8,0.2c-0.7,0-2,0-3.4,0
			c-0.3,0-0.5,0-0.5-0.1c0-0.1,0.1-0.1,0.3-0.2c0.1,0,0.3-0.2,0.2-0.4l-1.5-3.9c0-0.1-0.1-0.1-0.2-0.1H392.3z M396,123.9
			c0.1,0,0.1-0.1,0.1-0.1l-1.6-4.5c0-0.1,0-0.2-0.1-0.2c-0.1,0-0.1,0.1-0.1,0.2l-1.7,4.5c0,0.1,0,0.1,0.1,0.1H396z"/>
		<path class="st0" d="M416.3,127c0,1.4,0.3,1.9,0.6,2c0.3,0.1,0.7,0.1,1,0.1c0.2,0,0.3,0,0.3,0.1c0,0.1-0.2,0.2-0.4,0.2
			c-1.2,0-1.9,0-2.3,0c-0.2,0-1,0-2,0c-0.2,0-0.4,0-0.4-0.2c0-0.1,0.1-0.1,0.3-0.1c0.2,0,0.6,0,0.8-0.1c0.5-0.1,0.5-0.7,0.6-2.3
			L415,116c0-0.4,0.1-0.6,0.2-0.6c0.2,0,0.4,0.2,0.7,0.6c0.2,0.2,3,3.2,5.6,5.9c1.2,1.2,3.7,3.9,4,4.2h0.1l-0.2-8.2
			c0-1.1-0.2-1.5-0.6-1.6c-0.3-0.1-0.7-0.1-1-0.1c-0.2,0-0.3-0.1-0.3-0.2c0-0.1,0.2-0.2,0.5-0.2c0.9,0,1.8,0.1,2.2,0.1
			c0.2,0,0.9-0.1,1.8-0.1c0.2,0,0.4,0,0.4,0.2c0,0.1-0.1,0.2-0.3,0.2c-0.2,0-0.3,0-0.5,0.1c-0.5,0.1-0.7,0.5-0.7,1.5l-0.2,11.5
			c0,0.4-0.1,0.6-0.2,0.6c-0.2,0-0.4-0.2-0.6-0.4c-1.1-1.1-3.5-3.5-5.4-5.4c-2-2-4-4.3-4.3-4.6h-0.1L416.3,127z"/>
		<path class="st0" d="M443.5,121c0-2.8,0-3.3,0-3.9c0-0.6-0.2-0.9-0.8-1c-0.1,0-0.4-0.1-0.7-0.1c-0.2,0-0.3,0-0.3-0.2
			c0-0.1,0.1-0.2,0.4-0.2c1,0,2.1,0.1,2.6,0.1c0.6,0,1.7-0.1,2.8-0.1c2.3,0,5.3,0,7.3,2.1c0.9,0.9,1.8,2.5,1.8,4.6
			c0,2.3-1,4.1-2,5.1c-0.8,0.9-2.7,2.2-6.1,2.2c-0.7,0-1.4-0.1-2.1-0.1c-0.7-0.1-1.3-0.1-1.8-0.1c-0.2,0-0.6,0-1,0
			c-0.4,0-0.9,0-1.3,0c-0.2,0-0.4,0-0.4-0.2c0-0.1,0.1-0.1,0.3-0.1c0.3,0,0.5,0,0.7-0.1c0.4-0.1,0.4-0.5,0.5-1
			c0.1-0.8,0.1-2.2,0.1-3.9V121z M445.7,123c0,1.9,0,3.3,0,3.7c0,0.5,0.1,1.2,0.2,1.4c0.2,0.3,0.9,0.7,2.4,0.7
			c1.9,0,3.1-0.4,4.2-1.3c1.2-1,1.5-2.7,1.5-4.6c0-2.3-1-3.8-1.7-4.6c-1.7-1.6-3.8-1.8-5.2-1.8c-0.4,0-1,0.1-1.2,0.1
			c-0.2,0.1-0.2,0.2-0.2,0.4c0,0.6,0,2.2,0,3.6V123z"/>
	</g>
	<g>
		<path class="st1" d="M151,150.4c0-5.1,0-6-0.1-7.1c-0.1-1.1-0.3-1.7-1.4-1.9c-0.3-0.1-0.8-0.1-1.3-0.1c-0.4,0-0.6-0.1-0.6-0.3
			c0-0.2,0.2-0.3,0.7-0.3c1.8,0,3.9,0.1,4.8,0.1c1,0,3.1-0.1,5.1-0.1c4.2,0,9.7,0,13.3,3.8c1.7,1.7,3.2,4.5,3.2,8.5
			c0,4.2-1.8,7.4-3.6,9.3c-1.5,1.6-5,3.9-11.1,3.9c-1.2,0-2.6-0.1-3.8-0.2c-1.3-0.1-2.4-0.2-3.3-0.2c-0.4,0-1.1,0-1.9,0
			c-0.8,0-1.6,0.1-2.3,0.1c-0.4,0-0.7-0.1-0.7-0.3c0-0.2,0.1-0.3,0.5-0.3c0.5,0,0.9-0.1,1.2-0.1c0.7-0.1,0.8-0.9,1-1.8
			c0.2-1.4,0.2-4,0.2-7.1V150.4z M155.2,154.1c0,3.5,0,6.1,0.1,6.7c0,0.8,0.1,2.2,0.4,2.5c0.4,0.6,1.7,1.3,4.3,1.3
			c3.4,0,5.7-0.7,7.6-2.4c2.1-1.8,2.8-4.9,2.8-8.3c0-4.2-1.8-7-3.2-8.3c-3.1-2.9-6.8-3.3-9.4-3.3c-0.7,0-1.9,0.1-2.2,0.2
			c-0.3,0.1-0.4,0.3-0.4,0.7c0,1.1,0,4,0,6.7V154.1z"/>
		<path class="st1" d="M188.4,150.4c0-5.1,0-6-0.1-7.1c-0.1-1.1-0.3-1.7-1.4-1.9c-0.3-0.1-0.8-0.1-1.3-0.1c-0.4,0-0.6-0.1-0.6-0.3
			c0-0.2,0.2-0.3,0.7-0.3c0.9,0,1.9,0,2.7,0c0.9,0,1.6,0.1,2.1,0.1c1.1,0,7.7,0,8.3,0c0.6-0.1,1.2-0.1,1.4-0.2
			c0.2,0,0.4-0.1,0.5-0.1c0.2,0,0.2,0.1,0.2,0.3c0,0.2-0.2,0.6-0.3,2.2c0,0.3-0.1,1.8-0.2,2.2c0,0.2-0.1,0.4-0.3,0.4
			c-0.2,0-0.3-0.2-0.3-0.5c0-0.2,0-0.8-0.2-1.2c-0.2-0.6-0.6-1-2.2-1.2c-0.6-0.1-4.1-0.1-4.7-0.1c-0.2,0-0.2,0.1-0.2,0.3v8.4
			c0,0.2,0,0.4,0.2,0.4c0.7,0,4.6,0,5.3-0.1c0.8-0.1,1.3-0.2,1.6-0.5c0.2-0.3,0.4-0.4,0.5-0.4c0.1,0,0.2,0.1,0.2,0.3
			c0,0.2-0.1,0.7-0.3,2.4c0,0.7-0.1,2-0.1,2.2c0,0.3,0,0.6-0.3,0.6c-0.2,0-0.3-0.1-0.3-0.3c0-0.3,0-0.8-0.1-1.2
			c-0.2-0.7-0.6-1.2-1.9-1.3c-0.6-0.1-3.9-0.1-4.7-0.1c-0.2,0-0.2,0.1-0.2,0.3v2.6c0,1.1,0,4.2,0,5.2c0.1,2.3,0.6,2.8,4,2.8
			c0.9,0,2.3,0,3.1-0.4c0.9-0.4,1.3-1.1,1.5-2.5c0.1-0.4,0.1-0.5,0.4-0.5c0.3,0,0.3,0.3,0.3,0.6c0,0.8-0.3,3-0.4,3.7
			c-0.2,0.9-0.5,0.9-1.8,0.9c-2.5,0-4.3-0.1-5.7-0.1c-1.4-0.1-2.5-0.1-3.5-0.1c-0.4,0-1.1,0-1.9,0c-0.8,0-1.6,0.1-2.3,0.1
			c-0.4,0-0.7-0.1-0.7-0.3c0-0.2,0.1-0.3,0.5-0.3c0.5,0,0.9-0.1,1.2-0.1c0.7-0.1,0.8-0.9,1-1.8c0.2-1.4,0.2-4,0.2-7.1V150.4z"/>
		<path class="st1" d="M217.9,161.4c0.1,2.6,0.5,3.5,1.2,3.7c0.6,0.2,1.2,0.2,1.7,0.2c0.4,0,0.6,0.1,0.6,0.3c0,0.3-0.3,0.3-0.8,0.3
			c-2.2,0-3.5-0.1-4.1-0.1c-0.3,0-1.9,0.1-3.6,0.1c-0.4,0-0.7,0-0.7-0.3c0-0.2,0.2-0.3,0.5-0.3c0.4,0,1,0,1.5-0.2
			c0.9-0.3,1-1.2,1-4.1l0.3-19.7c0-0.7,0.1-1.1,0.4-1.1c0.4,0,0.7,0.4,1.2,1c0.4,0.4,5.4,5.9,10.3,10.7c2.3,2.3,6.7,7.1,7.3,7.6h0.2
			l-0.3-14.9c0-2-0.3-2.7-1.1-3c-0.5-0.2-1.3-0.2-1.8-0.2c-0.4,0-0.5-0.1-0.5-0.3c0-0.3,0.4-0.3,0.9-0.3c1.7,0,3.3,0.1,4,0.1
			c0.4,0,1.6-0.1,3.3-0.1c0.4,0,0.8,0,0.8,0.3c0,0.2-0.2,0.3-0.6,0.3c-0.3,0-0.6,0-1,0.1c-0.9,0.3-1.2,1-1.2,2.8l-0.4,21
			c0,0.7-0.1,1-0.4,1c-0.4,0-0.8-0.4-1.1-0.7c-2.1-2-6.3-6.4-9.8-9.8c-3.6-3.6-7.3-7.8-7.9-8.4h-0.1L217.9,161.4z"/>
		<path class="st1" d="M258.6,142.6l-4.9,0.1c-1.9,0.1-2.7,0.2-3.2,1c-0.3,0.5-0.5,0.9-0.6,1.2c-0.1,0.3-0.2,0.4-0.4,0.4
			c-0.2,0-0.3-0.2-0.3-0.5c0-0.5,0.6-3.6,0.7-3.8c0.1-0.4,0.2-0.6,0.4-0.6c0.3,0,0.6,0.3,1.4,0.4c1,0.1,2.2,0.2,3.3,0.2h13.2
			c1.1,0,1.8-0.1,2.3-0.2c0.5-0.1,0.8-0.2,0.9-0.2c0.2,0,0.3,0.2,0.3,0.7c0,0.7-0.1,3-0.1,3.9c0,0.3-0.1,0.5-0.3,0.5
			c-0.3,0-0.3-0.2-0.4-0.7l0-0.4c-0.1-0.9-1-1.8-3.9-1.9l-4.2-0.1v13.6c0,3.1,0,5.7,0.2,7.1c0.1,0.9,0.3,1.7,1.3,1.8
			c0.5,0.1,1.2,0.1,1.7,0.1c0.4,0,0.5,0.1,0.5,0.3c0,0.2-0.3,0.3-0.6,0.3c-2.2,0-4.3-0.1-5.2-0.1c-0.8,0-2.9,0.1-4.2,0.1
			c-0.4,0-0.7-0.1-0.7-0.3c0-0.2,0.1-0.3,0.5-0.3c0.5,0,0.9-0.1,1.2-0.1c0.7-0.1,0.9-0.9,1-1.8c0.2-1.4,0.2-4,0.2-7.1V142.6z"/>
		<path class="st1" d="M283.7,157.2c-0.2,0-0.2,0.1-0.3,0.3l-1.8,4.8c-0.3,0.8-0.5,1.6-0.5,2c0,0.6,0.3,1,1.3,1h0.5
			c0.4,0,0.5,0.1,0.5,0.3c0,0.3-0.2,0.3-0.6,0.3c-1.1,0-2.5-0.1-3.5-0.1c-0.4,0-2.2,0.1-3.9,0.1c-0.4,0-0.6-0.1-0.6-0.3
			c0-0.2,0.1-0.3,0.4-0.3c0.3,0,0.8,0,1-0.1c1.5-0.2,2.2-1.3,2.8-3l8.3-20.9c0.4-1,0.6-1.3,0.9-1.3c0.3,0,0.5,0.3,0.8,1.1
			c0.8,1.8,6.1,15.4,8.2,20.5c1.3,3,2.2,3.5,2.9,3.6c0.5,0.1,1,0.1,1.4,0.1c0.3,0,0.4,0,0.4,0.3c0,0.3-0.3,0.3-1.5,0.3
			c-1.2,0-3.6,0-6.3-0.1c-0.6,0-1,0-1-0.3c0-0.2,0.1-0.3,0.5-0.3c0.2-0.1,0.5-0.4,0.3-0.8l-2.7-7.1c-0.1-0.2-0.2-0.2-0.3-0.2H283.7z
			 M290.5,155.5c0.2,0,0.2-0.1,0.2-0.2l-3-8.2c0-0.1-0.1-0.3-0.2-0.3c-0.1,0-0.2,0.2-0.2,0.3l-3.1,8.2c0,0.1,0,0.2,0.1,0.2H290.5z"
			/>
		<path class="st1" d="M316.5,156.2c0,4.3,0,6.6,0.7,7.2c0.6,0.5,1.4,0.7,4,0.7c1.8,0,3.1,0,3.9-0.9c0.4-0.4,0.8-1.4,0.9-2
			c0-0.3,0.1-0.5,0.4-0.5c0.2,0,0.3,0.2,0.3,0.6c0,0.4-0.2,2.9-0.5,3.8c-0.2,0.7-0.4,0.9-2.1,0.9c-2.4,0-4.1-0.1-5.6-0.1
			c-1.5-0.1-2.7-0.1-4.1-0.1c-0.4,0-1.1,0-1.9,0c-0.8,0-1.6,0.1-2.3,0.1c-0.4,0-0.7-0.1-0.7-0.3c0-0.2,0.1-0.3,0.5-0.3
			c0.5,0,0.9-0.1,1.2-0.1c0.7-0.1,0.8-0.9,1-1.8c0.2-1.4,0.2-4,0.2-7.1v-5.9c0-5.1,0-6-0.1-7.1c-0.1-1.1-0.3-1.7-1.4-1.9
			c-0.3-0.1-0.7-0.1-1.1-0.1c-0.4,0-0.6-0.1-0.6-0.3c0-0.2,0.2-0.3,0.7-0.3c1.6,0,3.6,0.1,4.6,0.1c0.8,0,3.2-0.1,4.5-0.1
			c0.5,0,0.7,0.1,0.7,0.3c0,0.2-0.2,0.3-0.6,0.3c-0.4,0-0.9,0-1.3,0.1c-0.9,0.2-1.2,0.7-1.2,1.9c-0.1,1.1-0.1,2-0.1,7.1V156.2z"/>
	</g>
	<path class="st1" d="M239,62c81,0,152.1,9,193,22.6c-35.7-16.1-108.7-27.1-193-27.1c-84.3,0-157.4,11-193,27.1
		C86.9,71,158,62,239,62z"/>
	<polygon class="st1" points="332.3,151.9 332.3,155.4 419.2,153.7 	"/>
	<polygon class="st1" points="145.7,155.4 145.7,151.9 58.7,153.7 	"/>
</g>
</svg>
