<?xml version="1.0" encoding="UTF-8"?>
<svg width="87px" height="87px" viewBox="0 0 87 87" version="1.1" xmlns="http://www.w3.org/2000/svg" xmlns:xlink="http://www.w3.org/1999/xlink">
    <!-- Generator: Sketch 40.3 (33839) - http://www.bohemiancoding.com/sketch -->
    <title>Exisiting icon</title>
    <desc>Created with Sketch.</desc>
    <defs>
        <polygon id="path-1" points="8.52994888e-05 54.8121868 54.5916728 54.8121868 54.5916728 0.00047104223 8.52994888e-05 0.00047104223"></polygon>
        <polygon id="path-3" points="9.09861213 80.156049 77.8436815 80.156049 77.8436815 11.3922064 9.09861213 11.3922064"></polygon>
    </defs>
    <g id="Page-1" stroke="none" stroke-width="1" fill="none" fill-rule="evenodd">
        <g id="DIETRICH-HOME" transform="translate(-1104.000000, -871.000000)">
            <g id="CTA-BELOW-SLIDER" transform="translate(-11.000000, 824.000000)">
                <g id="Exisiting-icon" transform="translate(1115.085464, 47.528090)">
                    <ellipse id="Oval" fill="#436972" cx="42.9656684" cy="42.9775281" rx="42.9656684" ry="42.9775281"></ellipse>
                    <g id="Group-3" transform="translate(17.186267, 13.146067)">
                        <mask id="mask-2" fill="white">
                            <use xlink:href="#path-1"></use>
                        </mask>
                        <g id="Clip-2"></g>
                        <path d="M43.0759006,8.35119335 L43.0759006,7.70886303 C43.0759006,6.76763501 42.3073522,5.99555397 41.3699108,5.99555397 L28.0331225,5.99555397 C26.4463388,5.99555397 25.0617148,5.17165829 24.2970049,3.77587452 L23.8960973,3.04361796 C23.4299356,2.19210207 22.6198037,1.71335188 21.6527208,1.71335188 L13.221506,1.71335188 C12.2847044,1.71335188 11.5155163,2.48564703 11.5155163,3.42623272 L11.5155163,4.06856303 C10.9278028,4.06856303 10.351818,4.17026533 9.8095265,4.36339265 L9.8095265,3.42623272 C9.8095265,1.54013681 11.3429981,0.00047104223 13.221506,0.00047104223 L21.6527208,0.00047104223 C23.2395045,0.00047104223 24.6245549,0.824794945 25.3888384,2.22057872 L25.789746,2.95283528 C26.2563342,3.80435116 27.0660396,4.28310136 28.0331225,4.28310136 L41.3699108,4.28310136 C43.2490585,4.28310136 44.7818904,5.82191068 44.7818904,7.70886303 L44.7818904,8.64602296 C44.2400254,8.45289565 43.6640406,8.35119335 43.0763271,8.35119335 L43.0759006,8.35119335 Z M48.1942964,40.2531707 L48.1942964,41.1096112 L46.4883066,41.1096112 L46.4883066,40.2531707 L46.4883066,19.2712369 C46.4883066,18.3295807 45.7201847,17.5579279 44.7823169,17.5579279 L28.0331225,17.5579279 C26.4463388,17.5579279 25.0617148,16.7340322 24.2970049,15.3382484 L23.8960973,14.6059918 C23.4299356,13.7540477 22.6202302,13.2757258 21.6527208,13.2757258 L9.8095265,13.2757258 C8.87187187,13.2757258 8.10353672,14.0473786 8.10353672,14.9881784 L8.10353672,40.2531707 L8.10353672,41.1096112 L6.39754695,41.1096112 L6.39754695,40.2531707 L6.39754695,14.9881784 C6.39754695,13.1014401 7.93016551,11.5628449 9.8095265,11.5628449 L21.6527208,11.5628449 C23.239931,11.5628449 24.6241284,12.3871688 25.3888384,13.7829526 L25.789746,14.5152092 C26.2563342,15.366725 27.0656131,15.8454752 28.0331225,15.8454752 L44.7823169,15.8454752 C46.6618911,15.8454752 48.1942964,17.3836422 48.1942964,19.2712369 L48.1942964,40.2531707 Z M44.7823169,14.1325944 L44.7823169,13.4898359 C44.7823169,12.5486078 44.0137685,11.776955 43.0763271,11.776955 L28.0331225,11.776955 C26.4463388,11.776955 25.0617148,10.9526311 24.2970049,9.55684735 L23.8960973,8.82501901 C23.4299356,7.9730749 22.6198037,7.49475293 21.6527208,7.49475293 L11.5155163,7.49475293 C10.5787146,7.49475293 9.8095265,8.26704808 9.8095265,9.20720555 L9.8095265,9.84996408 C9.22181302,9.84996408 8.64582822,9.95166638 8.10353672,10.1443655 L8.10353672,9.20720555 C8.10353672,7.32110963 9.63700828,5.78187209 11.5155163,5.78187209 L21.6527208,5.78187209 C23.2395045,5.78187209 24.6245549,6.60619599 25.3888384,8.00155155 L25.789746,8.7338081 C26.2563342,9.58532399 27.0660396,10.0640742 28.0331225,10.0640742 L43.0763271,10.0640742 C44.9554748,10.0640742 46.4883066,11.6030976 46.4883066,13.4898359 L46.4883066,14.4269958 C45.9402574,14.2317274 45.3634196,14.1325944 44.7823169,14.1325944 L44.7823169,14.1325944 Z M4.26505973,31.2605463 L4.69155718,31.2605463 L4.69155718,33.8298676 L4.26548623,33.8298676 C3.32676536,33.8298676 2.55949646,34.6002357 2.55949646,35.5423202 L2.55949646,41.1096112 C2.55949646,42.0512674 3.32676536,42.822492 4.26548623,42.822492 L50.3263571,42.822492 C51.2646515,42.822492 52.0323469,42.0512674 52.0323469,41.1096112 L52.0323469,35.5423202 C52.0323469,34.6002357 51.265078,33.8298676 50.3263571,33.8298676 L49.9002862,33.8298676 L49.9002862,31.2605463 L50.3267836,31.2605463 C52.674652,31.2605463 54.5917581,33.1845397 54.5917581,35.5423202 L54.5917581,50.5304558 C54.5917581,52.8882362 52.674652,54.8122296 50.3267836,54.8122296 L4.26505973,54.8122296 C1.91676481,54.8122296 8.52994888e-05,52.8882362 8.52994888e-05,50.5304558 L8.52994888e-05,35.5423202 C8.52994888e-05,33.1845397 1.91676481,31.2605463 4.26505973,31.2605463 L4.26505973,31.2605463 Z" id="Fill-1" fill="#FFFFFF" mask="url(#mask-2)"></path>
                    </g>
                    <mask id="mask-4" fill="white">
                        <use xlink:href="#path-3"></use>
                    </mask>
                    <g id="Clip-5"></g>
                    <path d="M46.8315106,49.5505618 L59.6464573,49.5505618 L59.6464573,47.8315037 L46.8315106,47.8315037 L46.8315106,49.5505618 Z M46.8310834,44.8227221 L59.6460301,44.8227221 L59.6460301,43.1040937 L46.8310834,43.1040937 L46.8310834,44.8227221 Z M42.9870266,49.550132 L29.3177502,49.550132 L30.0900643,43.4126647 C30.2009136,42.5312176 30.8027889,41.8693802 31.6176059,41.5268579 L33.4900832,40.739959 L36.1523884,43.7839812 L38.8146936,40.739959 L40.6873844,41.5268579 C41.5019879,41.8693802 42.1040768,42.5316474 42.2149261,43.4126647 L42.9870266,49.550132 Z M36.1523884,32.3595506 C34.1472764,32.3595506 32.5214868,33.9948046 32.5214868,36.0125491 C32.5214868,38.029649 34.1472764,39.6655477 36.1523884,39.6655477 C38.157714,39.6655477 39.78329,38.029649 39.78329,36.0125491 C39.78329,33.9948046 38.157714,32.3595506 36.1523884,32.3595506 L36.1523884,32.3595506 Z M46.8310834,40.095742 L59.6460301,40.095742 L59.6460301,38.3762541 L46.8310834,38.3762541 L46.8310834,40.095742 Z" id="Fill-4" fill="#FFFFFF" mask="url(#mask-4)"></path>
                </g>
            </g>
        </g>
    </g>
</svg>