<?xml version="1.0" encoding="UTF-8"?>
<svg width="87px" height="87px" viewBox="0 0 87 87" version="1.1" xmlns="http://www.w3.org/2000/svg" xmlns:xlink="http://www.w3.org/1999/xlink">
    <!-- Generator: Sketch 40.3 (33839) - http://www.bohemiancoding.com/sketch -->
    <title>New Patient hotline icon</title>
    <desc>Created with Sketch.</desc>
    <defs></defs>
    <g id="Page-1" stroke="none" stroke-width="1" fill="none" fill-rule="evenodd">
        <g id="DIETRICH-HOME" transform="translate(-248.000000, -872.000000)">
            <g id="CTA-BELOW-SLIDER" transform="translate(-11.000000, 824.000000)">
                <g id="New-Patient-hotline-icon" transform="translate(259.815924, 48.539326)">
                    <ellipse id="Oval" fill="#88B13B" cx="42.9656684" cy="42.9775281" rx="42.9656684" ry="42.9775281"></ellipse>
                    <path d="M69.7563296,60.2110112 L69.7563296,57.1651685 C69.7583515,56.4451685 69.2933113,55.8070787 68.6058606,55.5886517 L56.6219775,51.7894382 C56.0356225,51.6033708 55.3946758,51.7601124 54.9589534,52.1949438 L50.5087211,56.6474157 C49.9850454,57.171236 49.1823457,57.2865169 48.5383661,56.9204494 C46.710556,55.8819101 42.8021966,53.3811236 38.1892003,48.7668539 C33.5762039,44.1525843 31.0761075,40.2431461 30.0378548,38.4138202 C29.6708774,37.7706742 29.7871375,36.9677528 30.3108131,36.4439326 L34.7610454,31.9914607 C35.1967679,31.5566292 35.3524552,30.9144944 35.1674501,30.3279775 L31.369285,18.3417978 C31.1509183,17.6541573 30.5130045,17.1889888 29.7921923,17.1910112 L26.748201,17.1910112 C25.2155904,17.211236 19.2084844,23.8742697 19.2084844,28.5380899 C19.2084844,31.3837079 20.2689782,41.7195506 32.7451974,54.201236 C45.2234384,66.6819101 55.5675495,67.752809 58.4123822,67.752809 C63.0739045,67.752809 69.7361104,61.7440449 69.7563296,60.2110112 Z" id="Fill-1-Copy" fill="#FFFFFF"></path>
                </g>
            </g>
        </g>
    </g>
</svg>